/home/minht/3dpredictsim_tutorial/predsim_tutorial/Results/Case_11/GRF.mot
version=1
nRows=25
nColumns=19
inDegrees=yes
endheader 
time	r_ground_force_vx	r_ground_force_vy	r_ground_force_vz	r_ground_force_px	r_ground_force_py	r_ground_force_pz	l_ground_force_vx	l_ground_force_vy	l_ground_force_vz	l_ground_force_px	l_ground_force_py	l_ground_force_pz	r_ground_torque_x	r_ground_torque_y	r_ground_torque_z	l_ground_torque_x	l_ground_torque_y	l_ground_torque_z	
          1.06659409	        -17.47016391	         43.90263219	         11.76868119	          0.33592554	          0.00000000	          0.09087760	        -30.69310412	        827.64636731	         11.01758707	          0.71751605	          0.00000000	         -0.08206411	          0.00000000	         -0.02273121	          0.00000000	          0.00000000	         -2.61671822	          0.00000000	
          1.08275461	          0.00000000	          0.00000000	          0.00000000	          0.00000000	          0.00000000	          0.00000000	        -27.39038141	        852.19205882	         13.16450011	          0.71864276	          0.00000000	         -0.08241699	          0.00000000	          0.00000000	          0.00000000	          0.00000000	         -3.08289133	          0.00000000	
          1.09891512	          0.00000000	          0.00000000	          0.00000000	          0.00000000	          0.00000000	          0.00000000	        -22.71531969	        870.18434592	         14.90063452	          0.71957999	          0.00000000	         -0.08276381	          0.00000000	          0.00000000	          0.00000000	          0.00000000	         -3.50509301	          0.00000000	
          1.11507564	          0.00000000	          0.00000000	          0.00000000	          0.00000000	          0.00000000	          0.00000000	        -17.60954515	        878.51960106	         16.16278983	          0.72045267	          0.00000000	         -0.08306780	          0.00000000	          0.00000000	          0.00000000	          0.00000000	         -3.78855672	          0.00000000	
          1.13123616	          0.00000000	          0.00000000	          0.00000000	          0.00000000	          0.00000000	          0.00000000	        -12.20807371	        880.01757678	         17.16514238	          0.72127422	          0.00000000	         -0.08331944	          0.00000000	          0.00000000	          0.00000000	          0.00000000	         -3.96227134	          0.00000000	
          1.14739667	          0.00000000	          0.00000000	          0.00000000	          0.00000000	          0.00000000	          0.00000000	         -6.91706953	        877.75768331	         18.15340204	          0.72204341	          0.00000000	         -0.08352100	          0.00000000	          0.00000000	          0.00000000	          0.00000000	         -4.05643410	          0.00000000	
          1.16355719	          0.00000000	          0.00000000	          0.00000000	          0.00000000	          0.00000000	          0.00000000	         -1.79105053	        874.27723000	         19.14336876	          0.72274810	          0.00000000	         -0.08368423	          0.00000000	          0.00000000	          0.00000000	          0.00000000	         -4.12328833	          0.00000000	
          1.17971771	          0.00000000	          0.00000000	          0.00000000	          0.00000000	          0.00000000	          0.00000000	          3.41002073	        870.87596877	         20.15543306	          0.72335104	          0.00000000	         -0.08382179	          0.00000000	          0.00000000	          0.00000000	          0.00000000	         -4.17729472	          0.00000000	
          1.19587822	          0.00000000	          0.00000000	          0.00000000	          0.00000000	          0.00000000	          0.00000000	          8.70010666	        868.05259869	         21.12061174	          0.72383451	          0.00000000	         -0.08394255	          0.00000000	          0.00000000	          0.00000000	          0.00000000	         -4.22576467	          0.00000000	
          1.21203874	          0.00000000	          0.00000000	          0.00000000	          0.00000000	          0.00000000	          0.00000000	         14.07393684	        866.14983910	         22.03665772	          0.72419797	          0.00000000	         -0.08405307	          0.00000000	          0.00000000	          0.00000000	          0.00000000	         -4.27871976	          0.00000000	
          1.22819926	          0.00000000	          0.00000000	          0.00000000	          0.00000000	          0.00000000	          0.00000000	         19.42749432	        865.47687522	         22.97604445	          0.72448490	          0.00000000	         -0.08415705	          0.00000000	          0.00000000	          0.00000000	          0.00000000	         -4.34905951	          0.00000000	
          1.24435977	          0.00000000	          0.00000000	          0.00000000	          0.00000000	          0.00000000	          0.00000000	         24.67124420	        866.04873770	         23.87573108	          0.72471009	          0.00000000	         -0.08425962	          0.00000000	          0.00000000	          0.00000000	          0.00000000	         -4.44059741	          0.00000000	
          1.26052029	          0.00000000	          0.00000000	          0.00000000	          0.00000000	          0.00000000	          0.00000000	         30.20082055	        868.55332781	         24.77443054	          0.72508568	          0.00000000	         -0.08436332	          0.00000000	          0.00000000	          0.00000000	          0.00000000	         -4.52950092	          0.00000000	
          1.27668081	          0.00000000	          0.00000000	          0.00000000	          0.00000000	          0.00000000	          0.00000000	         35.24365859	        872.37016713	         25.64831033	          0.72561767	          0.00000000	         -0.08447715	          0.00000000	          0.00000000	          0.00000000	          0.00000000	         -4.63682829	          0.00000000	
          1.29284132	          0.00000000	          0.00000000	          0.00000000	          0.00000000	          0.00000000	          0.00000000	         40.02609463	        876.72161221	         26.48129740	          0.72620268	          0.00000000	         -0.08460093	          0.00000000	          0.00000000	          0.00000000	          0.00000000	         -4.76977393	          0.00000000	
          1.30900184	          0.00000000	          0.00000000	          0.00000000	          0.00000000	          0.00000000	          0.00000000	         44.63157377	        881.20936176	         27.27405310	          0.72681197	          0.00000000	         -0.08473144	          0.00000000	          0.00000000	          0.00000000	          0.00000000	         -4.91598260	          0.00000000	
          1.32516236	          0.00000000	          0.00000000	          0.00000000	          0.00000000	          0.00000000	          0.00000000	         49.33484932	        885.80227334	         28.01756214	          0.72750658	          0.00000000	         -0.08486830	          0.00000000	          0.00000000	          0.00000000	          0.00000000	         -5.05936466	          0.00000000	
          1.34132287	          0.00000000	          0.00000000	          0.00000000	          0.00000000	          0.00000000	          0.00000000	         53.66128764	        890.28355753	         28.68562452	          0.72830101	          0.00000000	         -0.08501399	          0.00000000	          0.00000000	          0.00000000	          0.00000000	         -5.20355166	          0.00000000	
          1.35748339	          0.00000000	          0.00000000	          0.00000000	          0.00000000	          0.00000000	          0.00000000	         57.60432692	        894.28395191	         29.22407385	          0.72915437	          0.00000000	         -0.08516826	          0.00000000	          0.00000000	          0.00000000	          0.00000000	         -5.34093469	          0.00000000	
          1.37364391	          0.00000000	          0.00000000	          0.00000000	          0.00000000	          0.00000000	          0.00000000	         61.06379320	        897.61926329	         29.61682127	          0.73004741	          0.00000000	         -0.08533019	          0.00000000	          0.00000000	          0.00000000	          0.00000000	         -5.46312269	          0.00000000	
          1.38980442	          0.00000000	          0.00000000	          0.00000000	          0.00000000	          0.00000000	          0.00000000	         64.02421875	        900.20302127	         29.89117009	          0.73097647	          0.00000000	         -0.08550136	          0.00000000	          0.00000000	          0.00000000	          0.00000000	         -5.55974337	          0.00000000	
          1.40596494	          0.00000000	          0.00000000	          0.00000000	          0.00000000	          0.00000000	          0.00000000	         67.51622836	        901.71755267	         30.01677041	          0.73194766	          0.00000000	         -0.08568832	          0.00000000	          0.00000000	          0.00000000	          0.00000000	         -5.62434923	          0.00000000	
          1.42212546	          0.00000000	          0.00000000	          0.00000000	          0.00000000	          0.00000000	          0.00000000	         71.13691089	        902.11601084	         29.93625560	          0.73296555	          0.00000000	         -0.08590004	          0.00000000	          0.00000000	          0.00000000	          0.00000000	         -5.64135680	          0.00000000	
          1.43828597	          0.00000000	          0.00000000	          0.00000000	          0.00000000	          0.00000000	          0.00000000	         74.96689856	        900.96861624	         29.67774965	          0.73395033	          0.00000000	         -0.08614298	          0.00000000	          0.00000000	          0.00000000	          0.00000000	         -5.63246764	          0.00000000	
          1.45444649	          0.00000000	          0.00000000	          0.00000000	          0.00000000	          0.00000000	          0.00000000	         79.20942925	        899.24568468	         29.28474375	          0.73499285	          0.00000000	         -0.08642982	          0.00000000	          0.00000000	          0.00000000	          0.00000000	         -5.57376895	          0.00000000	
